<svg id="Layer_1" data-name="Layer 1" xmlns="http://www.w3.org/2000/svg" viewBox="0 0 20 20"><title>Artboard 9 copy 2</title><path d="M16.29,10a.22.22,0,0,1,0,.28l-.31.42q-.19.26-.82.93a10.78,10.78,0,0,1-1.28,1.17,7.56,7.56,0,0,1-1.63.92,4.83,4.83,0,0,1-1.92.42,5,5,0,0,1-1.9-.4,6.64,6.64,0,0,1-1.66-1,15.35,15.35,0,0,1-1.26-1.14,7.59,7.59,0,0,1-.84-1l-.29-.39a.22.22,0,0,1,0-.28l.31-.42q.19-.26.82-.93A10.86,10.86,0,0,1,6.78,7.49a7.55,7.55,0,0,1,1.63-.92,4.83,4.83,0,0,1,1.92-.42,5,5,0,0,1,1.9.4,6.66,6.66,0,0,1,1.65,1,16,16,0,0,1,1.25,1.12,7.93,7.93,0,0,1,.83.94l.29.4Zm-6,2.39a2.25,2.25,0,0,0,2.25-2.25A2.25,2.25,0,0,0,10.33,7.9a2.25,2.25,0,0,0-2.25,2.25,2.23,2.23,0,0,0,2.25,2.25Z"/></svg>