<svg id="Layer_1" data-name="Layer 1" xmlns="http://www.w3.org/2000/svg" viewBox="0 0 20 20"><title>Artboard 1</title><path d="M16,15.25v.5a.24.24,0,0,1-.25.25H4.25a.24.24,0,0,1-.18-.07A.25.25,0,0,1,4,15.75v-.5a1.62,1.62,0,0,1,.46-1.17,3.29,3.29,0,0,1,1.13-.75l1.32-.51A3.78,3.78,0,0,0,8,12.18a1.18,1.18,0,0,0,.46-.93l-.16-.17A4.88,4.88,0,0,1,8,10.55a6.72,6.72,0,0,1-.46-.87,6.42,6.42,0,0,1-.36-1.19A6.9,6.9,0,0,1,7,7a2.89,2.89,0,0,1,.88-2.12,3,3,0,0,1,4.24,0A2.89,2.89,0,0,1,13,7a7.18,7.18,0,0,1-.15,1.49,5.76,5.76,0,0,1-.37,1.2,8.82,8.82,0,0,1-.45.85,4.32,4.32,0,0,1-.37.55l-.15.17a1.18,1.18,0,0,0,.46.93,3.78,3.78,0,0,0,1.13.63l1.32.51a3.29,3.29,0,0,1,1.13.75A1.62,1.62,0,0,1,16,15.25Z"/></svg>